<svg width="32" height="32" viewBox="0 0 32 32" fill="none" xmlns="http://www.w3.org/2000/svg">
<path d="M3.66409 5.79785L0.846191 14.1376H6.92157L9.73946 5.79785H3.66409Z" fill="white" stroke="#1A1A1A" stroke-width="1.56068" stroke-linejoin="round"/>
<path d="M23.444 5.79785H3.71875V26.2027H23.444V5.79785Z" fill="white" stroke="#1A1A1A" stroke-width="1.56068" stroke-linejoin="round"/>
<path d="M28.3376 5.79785H22.2622V26.2027H28.3376V5.79785Z" fill="white" stroke="#1A1A1A" stroke-width="1.56068" stroke-linejoin="round"/>
<path d="M28.3376 5.79785L31.1555 14.0589H25.0801L22.2622 5.79785H28.3376Z" fill="white" stroke="#1A1A1A" stroke-width="1.56068" stroke-linejoin="round"/>
<path d="M17.5724 12.752L16.2085 13.1396C16.2085 13.1396 16.6537 14.2911 16.6537 15.5008C16.6537 15.5008 16.7777 18.0805 15.1659 18.0805C14.8925 18.0805 14.7263 18.0018 14.7263 18.0018C14.7263 18.0018 15.535 17.2206 15.535 15.4979C15.535 13.7751 14.3149 13.3379 13.5794 13.3379C12.8439 13.3379 11.6238 13.7751 11.6238 15.4979C11.6238 17.2206 12.4325 18.0018 12.4325 18.0018C12.4325 18.0018 12.2663 18.0805 11.9929 18.0805C10.3811 18.0805 10.5051 15.5008 10.5051 15.5008C10.5051 14.2911 10.9503 13.1396 10.9503 13.1396L9.58645 12.752C9.58645 12.752 9.14404 14.0462 9.14404 15.4979C9.14404 17.1332 9.65972 19.2436 11.9366 19.2436C12.796 19.2436 13.5794 18.8851 13.5794 18.8851C13.5794 18.8851 14.36 19.2436 15.2222 19.2436C17.4991 19.2436 18.0148 17.1332 18.0148 15.4979C18.0148 14.0433 17.5724 12.752 17.5724 12.752Z" fill="#1A1A1A"/>
<path d="M13.5808 17.4494C13.5808 17.4494 12.8003 17.0121 12.8003 15.5021C12.8003 14.9308 13.1525 14.5723 13.5808 14.5723C14.0092 14.5723 14.3614 14.9308 14.3614 15.5021C14.3614 17.0121 13.5808 17.4494 13.5808 17.4494Z" fill="white"/>
</svg>
