<svg width="122" height="30" viewBox="0 0 122 30" fill="none" xmlns="http://www.w3.org/2000/svg">
<g id="&#235;&#161;&#156;&#234;&#179;&#160;">
<path id="Vector" d="M46.7146 24.6839C42.1075 25.0839 39.7614 22.5475 39.4553 20.2846C45.8585 21.5819 54.8864 19.0281 54.8864 12.7441C54.8864 8.72147 51.5671 6.50656 46.4085 6.50656C38.0332 6.50656 33.9661 12.1987 33.9661 18.3577C33.9661 24.5167 37.7878 29.1923 45.7964 29.0832C51.1326 29.0105 54.5658 26.5178 55.1275 26.099L53.112 22.2407C51.8617 23.1176 49.8115 24.4149 46.7146 24.6839ZM46.3826 10.6528C48.4948 10.6528 49.8808 11.5297 49.8808 12.8706C49.8808 17.0546 42.4483 17.2931 39.2474 16.3478C39.451 13.3316 41.8159 10.6528 46.3826 10.6528ZM69.4987 24.6839C64.8917 25.0839 62.5456 22.5475 62.2395 20.2846C68.6426 21.5819 77.6705 19.0281 77.6705 12.7441C77.6705 8.72147 74.3513 6.50656 69.1927 6.50656C60.8174 6.50656 56.7503 12.1987 56.7503 18.3577C56.7503 24.5167 60.5719 29.1923 68.5805 29.0832C73.9167 29.0105 77.35 26.5178 77.9116 26.099L75.8961 22.2407C74.6458 23.1176 72.5956 24.4149 69.4987 24.6839ZM69.1667 10.6528C71.2789 10.6528 72.6649 11.5297 72.6649 12.8706C72.6649 17.0546 65.2324 17.2931 62.0316 16.3478C62.2351 13.3316 64.6 10.6528 69.1667 10.6528ZM122 25.2366C119.699 27.3322 116.537 29.0861 113.786 29.0861C109.117 29.0861 106.928 24.5007 106.928 16.3246C106.928 14.3845 106.989 12.4474 107.082 10.6193C104.682 10.647 103.16 10.4899 103.16 10.4899V6.50801C103.16 6.50801 104.8 6.70144 107.337 6.65635C107.642 2.75009 108.004 0 108.004 0L112.732 0.446472C112.732 0.446472 112.412 2.93915 112.142 6.28405C114.835 5.86812 117.357 5.06098 117.357 5.06098L118.404 8.99488C118.404 8.99488 115.118 9.95181 111.878 10.327C111.775 12.4474 111.733 14.6434 111.819 16.6198C112.084 22.8151 113.128 24.0266 115.032 24.0266C117.031 24.0266 118.509 22.821 120.091 21.5804L122 25.2351V25.2366ZM104.709 28.308C104.709 24.6534 103.251 21.3434 100.891 18.9365C100.961 18.3766 100.996 17.808 100.996 17.235C100.996 10.9509 97.1744 6.4004 89.1658 6.50947C85.1665 6.56328 82.24 7.97686 80.7861 8.85817L82.6197 12.3689C83.9061 11.6475 85.6372 10.9524 87.9083 10.7037C92.9831 10.1467 95.5978 13.0335 95.8577 15.7239C89.1268 13.3432 80.0744 17.0328 80.0744 22.8471C80.0744 26.8697 83.3936 29.0846 88.5522 29.0846C93.7108 29.0846 97.339 26.861 99.2664 23.6906C99.2982 23.6383 99.327 23.5859 99.3588 23.5321C100.193 24.9268 100.674 26.56 100.674 28.3066H104.709V28.308ZM88.5796 24.9399C86.4674 24.9399 85.0814 24.0629 85.0814 22.7221C85.0814 19.0994 91.984 17.5971 95.6656 19.7029C95.257 22.5955 92.8849 24.9384 88.5796 24.9384V24.9399ZM29.9611 6.55746L25.11 7.89833C25.11 7.89833 26.6924 11.8933 26.6924 16.089C26.6924 16.089 27.1357 25.046 21.4053 25.046C20.4366 25.046 19.8461 24.777 19.8461 24.777C19.8461 24.777 22.7206 22.0647 22.7206 16.089C22.7206 10.1132 18.3792 8.59785 15.7645 8.59785C13.1499 8.59785 8.80844 10.1147 8.80844 16.089C8.80844 22.0633 11.683 24.777 11.683 24.777C11.683 24.777 11.0925 25.046 10.1237 25.046C4.39339 25.046 4.83663 16.089 4.83663 16.089C4.83663 11.8918 6.419 7.89833 6.419 7.89833L1.56793 6.55746C1.56793 6.55746 0 11.044 0 16.089C0 21.7637 1.83359 29.0846 9.92736 29.0846C12.9853 29.0846 15.766 27.8441 15.766 27.8441C15.766 27.8441 18.5452 29.0846 21.6046 29.0846C29.6998 29.0846 31.5319 21.7637 31.5319 16.089C31.5319 11.0425 29.9611 6.55601 29.9611 6.55601V6.55746ZM15.766 22.85C15.766 22.85 12.9867 21.3288 12.9867 16.0904C12.9867 14.1053 14.237 12.859 15.766 12.859C17.2949 12.859 18.5452 14.1038 18.5452 16.0904C18.5452 21.3288 15.766 22.85 15.766 22.85Z" fill="black"/>
</g>
</svg>
